<svg width="136" height="25" viewBox="0 0 136 25" fill="none" xmlns="http://www.w3.org/2000/svg">
<path d="M13.6487 16.4881C11.9044 18.0988 10.0212 18.9349 7.99921 18.9964C5.97719 19.058 4.13848 18.3193 2.48309 16.7805C0.915467 15.2907 0.026681 13.3022 0 11.2251C0 9.39902 0.833251 7.71652 2.49975 6.17765C4.16626 4.63878 5.83831 3.91551 7.51592 4.00784C9.31575 3.98732 10.96 4.66442 12.4488 6.03915L12.7987 6.36231L6.03274 12.6255C7.16596 13.595 8.23252 14.703 9.21576 14.9184C10.199 15.1339 11.1989 14.8723 12.0155 14.1182C12.5321 13.6412 12.8821 12.5332 13.032 11.8253C13.182 11.1174 13.1654 10.2403 12.9654 9.19384L15.5318 8.4244C16.0378 9.7218 16.136 11.1249 15.8151 12.4716C15.4818 13.7797 14.7652 15.457 13.6487 16.4881ZM7.54926 8.07046C7.16701 7.74862 6.69269 7.53497 6.18272 7.45491C5.605 7.3831 5.06617 7.57289 4.56622 8.02429C4.06627 8.4757 3.86073 9.10663 3.94961 9.91711C4.05654 10.2803 4.21929 10.6276 4.4329 10.9482L7.54926 8.07046Z" fill="white"/>
<path d="M33.7307 9.83782C33.7307 12.7572 32.9068 14.9933 31.259 16.546C29.6192 18.0987 27.2475 18.875 24.1439 18.875H19.1765V1.14027H24.6838C27.5475 1.14027 29.7712 1.90449 31.355 3.43293C32.9388 4.96137 33.7307 7.09633 33.7307 9.83782ZM29.8672 9.93487C29.8672 6.1259 28.2034 4.22141 24.8758 4.22141H22.8961V15.7696H24.4919C28.0754 15.7696 29.8672 13.8247 29.8672 9.93487Z" fill="white"/>
<path d="M45.5973 18.875L44.8893 17.0312H44.7934C44.1774 17.8156 43.5415 18.3615 42.8856 18.6688C42.2377 18.968 41.3898 19.1176 40.3419 19.1176C39.0541 19.1176 38.0382 18.7456 37.2943 18.0016C36.5584 17.2576 36.1904 16.1982 36.1904 14.8235C36.1904 13.384 36.6864 12.3246 37.6782 11.6453C38.6781 10.9579 40.1819 10.5778 42.1897 10.505L44.5174 10.4322V9.83782C44.5174 8.46304 43.8215 7.77564 42.4297 7.77564C41.3578 7.77564 40.0979 8.10317 38.6501 8.75821L37.4383 6.25933C38.9821 5.44254 40.6939 5.03415 42.5736 5.03415C44.3734 5.03415 45.7532 5.43041 46.7131 6.22294C47.673 7.01546 48.1529 8.22043 48.1529 9.83782V18.875H45.5973ZM44.5174 12.5914L43.1016 12.64C42.0377 12.6723 41.2458 12.8664 40.7259 13.2222C40.2059 13.5781 39.946 14.1199 39.946 14.8477C39.946 15.8909 40.5379 16.4125 41.7217 16.4125C42.5696 16.4125 43.2456 16.1659 43.7495 15.6726C44.2614 15.1793 44.5174 14.5242 44.5174 13.7074V12.5914Z" fill="white"/>
<path d="M61.2913 14.8477C61.2913 16.2387 60.8114 17.2981 59.8515 18.0259C58.8996 18.7537 57.4718 19.1176 55.568 19.1176C54.5922 19.1176 53.7603 19.0489 53.0723 18.9114C52.3844 18.782 51.7405 18.5879 51.1406 18.3292V15.2723C51.8205 15.5958 52.5844 15.8667 53.4323 16.085C54.2882 16.3034 55.0401 16.4125 55.688 16.4125C57.0159 16.4125 57.6798 16.0244 57.6798 15.248C57.6798 14.9569 57.5918 14.7224 57.4158 14.5445C57.2398 14.3585 56.9359 14.1522 56.5039 13.9258C56.072 13.6913 55.496 13.4204 54.7761 13.1131C53.7443 12.6764 52.9844 12.272 52.4964 11.9C52.0165 11.528 51.6645 11.1034 51.4405 10.6263C51.2246 10.1411 51.1166 9.54669 51.1166 8.84313C51.1166 7.63816 51.5765 6.70816 52.4964 6.05311C53.4243 5.38998 54.7361 5.05841 56.4319 5.05841C58.0477 5.05841 59.6195 5.41424 61.1473 6.1259L60.0435 8.7946C59.3716 8.50347 58.7436 8.2649 58.1597 8.0789C57.5758 7.8929 56.9799 7.7999 56.3719 7.7999C55.2921 7.7999 54.7521 8.09508 54.7521 8.68543C54.7521 9.017 54.9241 9.30408 55.2681 9.54669C55.62 9.7893 56.3839 10.1492 57.5598 10.6263C58.6077 11.0549 59.3756 11.4552 59.8635 11.8272C60.3514 12.1992 60.7114 12.6278 60.9434 13.1131C61.1753 13.5983 61.2913 14.1765 61.2913 14.8477Z" fill="white"/>
<path d="M76.5295 18.875H72.8699V10.9538C72.8699 8.99678 72.15 8.01825 70.7102 8.01825C69.6863 8.01825 68.9464 8.37004 68.4904 9.0736C68.0345 9.77717 67.8065 10.9174 67.8065 12.4944V18.875H64.147V0H67.8065V3.84536C67.8065 4.14458 67.7785 4.84815 67.7225 5.95607L67.6385 7.04781H67.8305C68.6464 5.72155 69.9423 5.05841 71.718 5.05841C73.2939 5.05841 74.4897 5.48702 75.3056 6.34424C76.1215 7.20147 76.5295 8.43069 76.5295 10.0319V18.875Z" fill="white"/>
<path d="M83.8823 18.9941V1.14746H85.1258V17.8223H93.623V18.9941H83.8823Z" fill="white"/>
<path d="M97.6094 18.9941H96.4025V5.7251H97.6094V18.9941ZM96.2319 2.03857C96.2319 1.25732 96.4879 0.866699 96.9999 0.866699C97.2518 0.866699 97.4469 0.968424 97.5851 1.17188C97.7314 1.37533 97.8045 1.66423 97.8045 2.03857C97.8045 2.40479 97.7314 2.69368 97.5851 2.90527C97.4469 3.11686 97.2518 3.22266 96.9999 3.22266C96.4879 3.22266 96.2319 2.82796 96.2319 2.03857Z" fill="white"/>
<path d="M112.397 5.7251V6.56738L109.654 6.73828C110.386 7.64974 110.751 8.65072 110.751 9.74121C110.751 11.0189 110.325 12.0565 109.471 12.854C108.626 13.6434 107.488 14.0381 106.058 14.0381C105.456 14.0381 105.034 14.0137 104.79 13.9648C104.31 14.2171 103.945 14.5142 103.693 14.856C103.441 15.1978 103.315 15.5599 103.315 15.9424C103.315 16.3656 103.473 16.6748 103.79 16.8701C104.115 17.0654 104.656 17.1631 105.412 17.1631H107.728C109.167 17.1631 110.268 17.4561 111.032 18.042C111.796 18.6198 112.178 19.4784 112.178 20.6177C112.178 22.0174 111.609 23.0957 110.471 23.8525C109.341 24.6175 107.728 25 105.631 25C103.965 25 102.673 24.6785 101.754 24.0356C100.844 23.3927 100.389 22.4976 100.389 21.3501C100.389 20.4386 100.669 19.6818 101.23 19.0796C101.799 18.4774 102.567 18.0664 103.534 17.8467C103.136 17.6758 102.815 17.4357 102.571 17.1265C102.336 16.8091 102.218 16.4469 102.218 16.04C102.218 15.153 102.783 14.3717 103.912 13.6963C103.14 13.3789 102.539 12.8825 102.108 12.207C101.677 11.5234 101.462 10.7422 101.462 9.86328C101.462 8.53678 101.88 7.47477 102.717 6.67725C103.563 5.87158 104.701 5.46875 106.131 5.46875C107.001 5.46875 107.675 5.5542 108.155 5.7251H112.397ZM101.669 21.2402C101.669 23.0632 103.022 23.9746 105.729 23.9746C109.207 23.9746 110.946 22.8638 110.946 20.6421C110.946 19.8446 110.674 19.2668 110.13 18.9087C109.585 18.5506 108.703 18.3716 107.484 18.3716H105.314C102.884 18.3716 101.669 19.3278 101.669 21.2402ZM102.681 9.86328C102.681 10.8887 102.99 11.6862 103.607 12.2559C104.233 12.8174 105.066 13.0981 106.107 13.0981C107.212 13.0981 108.057 12.8174 108.642 12.2559C109.236 11.6943 109.532 10.8805 109.532 9.81445C109.532 8.68327 109.228 7.83691 108.618 7.27539C108.017 6.70573 107.171 6.4209 106.082 6.4209C105.026 6.4209 104.193 6.72607 103.583 7.33643C102.982 7.93864 102.681 8.78092 102.681 9.86328Z" fill="white"/>
<path d="M124.369 18.9941V10.3882C124.369 9.05355 124.088 8.08512 123.528 7.48291C122.967 6.87256 122.097 6.56738 120.919 6.56738C119.334 6.56738 118.172 6.97021 117.432 7.77588C116.701 8.57341 116.335 9.87142 116.335 11.6699V18.9941H115.128V0H116.335V6.04248L116.274 7.73926H116.359C116.855 6.94173 117.481 6.36393 118.237 6.00586C118.993 5.64779 119.931 5.46875 121.053 5.46875C124.06 5.46875 125.564 7.08415 125.564 10.3149V18.9941H124.369Z" fill="white"/>
<path d="M133.354 18.1641C134.118 18.1641 134.784 18.099 135.353 17.9688V18.9453C134.768 19.1406 134.093 19.2383 133.329 19.2383C132.159 19.2383 131.293 18.925 130.733 18.2983C130.18 17.6717 129.904 16.687 129.904 15.3442V6.7749H127.941V6.06689L129.904 5.51758L130.513 2.51465H131.135V5.7251H135.024V6.7749H131.135V15.1733C131.135 16.1906 131.314 16.9434 131.671 17.4316C132.029 17.9199 132.59 18.1641 133.354 18.1641Z" fill="white"/>
</svg>
